<svg width="32" height="32" viewBox="0 0 32 32" fill="none" xmlns="http://www.w3.org/2000/svg">
  <path d="M20.8 9.6C20.4 9.4 19.9 9.4 19.5 9.6L16.8 11.2L14.9 12.3L12.2 13.9C11.8 14.1 11.3 14.1 10.9 13.9L8.8 12.6C8.4 12.4 8.1 12 8.1 11.5V9C8.1 8.5 8.3 8.1 8.8 7.9L10.9 6.6C11.3 6.4 11.8 6.4 12.2 6.6L14.3 7.9C14.7 8.1 15 8.5 15 9V10.6L16.9 9.5V7.9C16.9 7.4 16.7 7 16.2 6.8L12.3 4.6C11.9 4.4 11.4 4.4 11 4.6L7 6.8C6.6 7 6.3 7.4 6.3 7.9V12.4C6.3 12.9 6.5 13.3 7 13.5L11 15.7C11.4 15.9 11.9 15.9 12.3 15.7L14.9 14.1L16.8 13L19.4 11.4C19.8 11.2 20.3 11.2 20.7 11.4L22.8 12.7C23.2 12.9 23.5 13.3 23.5 13.8V16.4C23.5 16.9 23.3 17.3 22.8 17.5L20.8 18.8C20.4 19 19.9 19 19.5 18.8L17.5 17.5C17.1 17.3 16.8 16.9 16.8 16.4V14.8L14.9 15.9V17.5C14.9 18 15.1 18.4 15.6 18.6L19.5 20.8C19.9 21 20.4 21 20.8 20.8L24.8 18.6C25.2 18.4 25.5 18 25.5 17.5V13C25.5 12.5 25.3 12.1 24.8 11.9L20.8 9.6Z" fill="#8247E5"/>
</svg>
